<?xml version="1.0" standalone="no"?>
<!DOCTYPE svg PUBLIC "-//W3C//DTD SVG 20010904//EN"
 "http://www.w3.org/TR/2001/REC-SVG-20010904/DTD/svg10.dtd">
<svg version="1.0" xmlns="http://www.w3.org/2000/svg"
 width="750.000000pt" height="750.000000pt" viewBox="0 0 750.000000 750.000000"
 preserveAspectRatio="xMidYMid meet">

<g transform="translate(0.000000,750.000000) scale(0.100000,-0.100000)"
fill="#000000" stroke="none">
<path d="M3745 4706 c-44 -21 -84 -59 -96 -95 -10 -30 -13 -31 -65 -31 -61 0
-118 -20 -147 -51 -24 -26 -34 -98 -17 -128 16 -31 69 -61 109 -61 44 0 89 47
115 118 10 29 22 55 28 58 33 20 109 -125 93 -177 -5 -16 -16 -19 -59 -19 -84
0 -224 -28 -308 -61 l-76 -31 -39 26 c-77 51 -152 52 -249 5 -48 -24 -154
-119 -154 -138 0 -6 15 -17 34 -25 30 -12 36 -22 50 -73 9 -32 25 -76 36 -98
l20 -40 -27 -75 c-24 -67 -27 -89 -27 -210 l-1 -136 38 -76 c62 -127 161 -196
347 -242 103 -25 98 -20 84 -92 -7 -38 15 -64 56 -64 39 0 140 -45 140 -63 0
-29 79 -52 180 -52 118 0 187 18 208 55 18 31 81 70 115 70 13 0 31 6 41 13
18 13 19 24 4 100 -2 13 15 25 78 50 104 42 173 94 219 162 51 78 66 127 72
236 6 102 -5 172 -38 255 -20 52 -20 52 -1 90 27 53 71 92 107 96 19 2 31 9
33 20 6 30 -40 110 -94 165 -60 60 -111 78 -193 69 -58 -7 -84 -18 -119 -49
l-23 -21 -47 25 c-75 42 -180 77 -276 94 -49 8 -90 16 -91 18 0 1 -8 34 -18
72 -10 39 -27 83 -38 98 -11 16 -18 31 -15 34 3 3 39 5 79 4 66 -2 75 0 96 23
20 21 23 33 19 70 -3 25 -12 52 -21 60 -36 36 -109 46 -162 22z m90 -26 c4 -6
-6 -10 -22 -10 -15 0 -47 -11 -71 -25 -24 -14 -42 -19 -40 -12 5 15 85 57 110
57 9 0 20 -4 23 -10z m64 -56 c2 -2 1 -14 -3 -28 -8 -33 -38 -40 -124 -31
l-67 7 30 24 c36 28 90 44 130 37 17 -3 32 -7 34 -9z m-357 -95 c-39 -20 -59
-38 -89 -85 -11 -17 -12 -17 -12 8 -1 31 47 84 82 91 53 10 59 6 19 -14z m64
-71 c-27 -61 -64 -93 -95 -83 -27 8 -28 53 -2 83 20 23 101 63 112 56 4 -2 -3
-28 -15 -56z m309 -203 c177 -34 347 -132 443 -257 151 -198 192 -434 105
-606 -53 -104 -160 -177 -333 -224 -78 -21 -104 -23 -320 -22 -207 1 -250 4
-365 26 -263 51 -378 132 -430 304 -51 168 34 438 187 593 175 178 421 242
713 186z m-676 -27 l44 -21 -38 -33 c-32 -27 -44 -31 -76 -27 -64 9 -129 -31
-100 -60 7 -7 16 -6 28 5 45 39 86 22 42 -17 -11 -11 -38 -46 -59 -78 l-40
-59 -10 27 c-6 15 -15 47 -21 72 -7 25 -22 57 -35 73 l-24 28 37 32 c48 42
129 80 172 80 19 0 55 -10 80 -22z m1260 -47 c34 -25 91 -104 91 -128 0 -7 -6
-13 -14 -13 -7 0 -32 -19 -55 -41 -22 -23 -41 -48 -41 -55 0 -22 -18 -17 -31
9 -6 12 -30 46 -52 75 -30 40 -37 56 -29 64 9 9 21 9 48 -1 24 -9 39 -10 46
-3 29 29 -56 59 -106 38 -29 -12 -35 -11 -59 8 -15 12 -27 25 -27 29 0 4 15
16 33 28 46 29 149 23 196 -10z m-411 -1105 c7 -54 -39 -81 -166 -97 -66 -8
-119 -8 -201 0 -150 14 -206 44 -183 96 l12 25 192 -6 c106 -3 222 -1 258 4
82 12 84 11 88 -22z m62 -13 c0 -20 -3 -24 -11 -16 -7 7 -9 19 -6 27 10 24 17
19 17 -11z m-663 -30 c-4 -17 -4 -17 -12 0 -4 9 -4 25 0 35 8 16 8 16 12 0 3
-10 3 -26 0 -35z m284 -103 c16 0 29 -4 29 -10 0 -15 -61 -11 -95 6 l-30 14
34 -5 c18 -3 46 -5 62 -5z m164 -5 c-35 -16 -95 -19 -95 -6 0 8 27 13 110 18
8 1 2 -5 -15 -12z"/>
<path d="M3613 3981 c-117 -43 -208 -137 -238 -246 -21 -75 -9 -131 35 -169
42 -35 97 -40 222 -21 95 14 114 14 165 1 140 -35 202 -29 247 25 22 26 26 40
26 98 0 171 -145 314 -330 326 -58 4 -87 1 -127 -14z m259 -64 c93 -54 158
-160 158 -257 0 -85 -56 -106 -204 -76 -88 17 -109 18 -181 8 -188 -27 -235
-11 -235 84 0 93 68 187 176 244 56 30 64 32 149 28 77 -3 98 -8 137 -31z"/>
<path d="M3535 3760 c-21 -40 -16 -74 11 -78 28 -4 47 21 48 66 1 31 -3 38
-21 40 -16 2 -26 -5 -38 -28z"/>
<path d="M3816 3773 c-9 -23 12 -81 34 -93 25 -14 28 -13 40 11 20 36 -18 99
-58 99 -6 0 -13 -7 -16 -17z"/>
<path d="M3160 3805 c-18 -21 -3 -55 24 -55 33 0 50 23 36 49 -12 24 -42 27
-60 6z"/>
<path d="M4246 3774 c-9 -8 -16 -22 -16 -29 0 -7 7 -21 16 -29 8 -9 22 -16 29
-16 16 0 45 27 45 41 0 43 -45 63 -74 33z"/>
</g>
</svg>
